<svg xmlns="http://www.w3.org/2000/svg" width="439" height="439" viewBox="0 0 439 439"><path d="M409 115c-20-34-46-60-80-80C296 15 259 5 219 5c-40 0-76 10-110 29 -34 20-60 46-80 80C10 148 0 185 0 225c0 48 14 91 42 129 28 38 64 65 108 79 5 1 9 0 11-2 2-2 4-5 4-9 0-1 0-6 0-15 0-10 0-18 0-25l-7 1c-4 1-9 1-16 1 -6 0-13-1-20-2 -7-1-13-4-19-9 -6-4-10-10-13-18l-3-7c-2-4-5-9-9-15 -4-5-8-9-12-11l-2-1c-1-1-3-2-4-3 -1-1-2-3-3-4 -1-1 0-2 1-3 2-1 4-1 8-1l6 1c4 1 9 3 14 7 6 4 10 9 14 15 4 8 10 14 16 18 6 4 12 6 19 6 6 0 12 0 16-1 5-1 9-2 13-4 2-13 6-23 14-29 -11-1-21-3-29-5 -9-2-18-6-27-11 -9-5-17-12-23-19 -6-8-11-18-15-30 -4-12-6-27-6-43 0-23 8-43 23-59 -7-17-6-37 2-58 6-2 14 0 25 4 11 4 19 8 24 11 5 3 9 6 12 8 18-5 36-7 55-7s37 2 55 7l11-7c7-5 16-9 26-13 10-4 18-5 23-3 9 22 9 41 2 58 15 16 23 36 23 59 0 16-2 30-6 43 -4 12-9 22-15 30 -6 8-14 14-23 19 -9 5-18 9-27 11 -9 2-18 4-29 5 10 9 15 22 15 41v60c0 3 1 6 4 9 2 2 6 3 11 2 44-15 80-41 108-79 28-38 42-81 42-129C439 185 429 148 409 115z"/></svg>