<svg xmlns="http://www.w3.org/2000/svg" width="512" height="512" viewBox="0 0 98 98"><path d="M49 0C22 0 0 22 0 49S22 98 49 98 98 76 98 49 76 0 49 0zM74 54c2 2 5 4 7 7 1 1 2 2 2 3 1 2 0 4-2 4l-10 0c-3 0-5-1-6-3 -1-1-3-3-4-4 -1-1-1-1-2-2 -1-1-3-1-3 1 -1 1-1 3-1 5 0 2-1 3-3 3 -5 0-10-1-14-3 -4-2-7-5-10-9 -5-7-9-15-13-23 -1-2 0-3 2-3 3 0 7 0 10 0 1 0 2 1 3 2 2 4 4 8 7 12 1 1 1 2 3 3 1 1 2 1 3-1 0-1 1-2 1-3 0-3 0-6 0-9 0-2-1-3-3-3 -1 0-1-1 0-1 1-1 2-2 3-2l11 0c2 0 2 1 2 3l0 13c0 1 0 3 2 3 1 0 2 0 2-1 3-3 5-6 6-10 1-2 1-3 2-5 0-1 1-2 3-2l11 0c0 0 1 0 1 0 2 0 2 1 2 3 -1 3-3 5-4 8 -2 3-4 5-6 7C71 51 72 52 74 54z" fill="#323ec7"/></svg>